<svg xmlns="http://www.w3.org/2000/svg" xmlns:xlink="http://www.w3.org/1999/xlink" xmlns:lucid="lucid" width="1737.62" height="1268"><g transform="translate(-12 -12)" lucid:page-tab-id="0eqBfotfVGlV"><path d="M177.1 1260h-37c-2.75 0-5-2.24-5-5V909.75h42z" fill="#fff"/><path d="M177.1 1260H1695c2.76 0 5-2.24 5-5V909.75H177.1z" fill="none"/><path d="M177.1 909.75h-42V492.88h42z" fill="#fff"/><path d="M177.1 909.75H1700V492.88H177.1z" fill="none"/><path d="M135.1 909.75H1700" stroke="#666" stroke-width="2" fill="none"/><path d="M135.1 492.88V285c0-2.76 2.25-5 5-5h37v212.88z" fill="#fff"/><path d="M177.1 280H1695c2.76 0 5 2.24 5 5v207.88H177.1z" fill="none"/><path d="M135.1 492.88H1700M177.1 1260V280M177.1 1260h-37c-2.75 0-5-2.24-5-5V909.75m0 0V492.88m0 0V285c0-2.76 2.25-5 5-5h37m0 0H1695c2.76 0 5 2.24 5 5v207.88m0 416.87V492.88M177.1 1260H1695c2.76 0 5-2.24 5-5V909.75" stroke="#666" stroke-width="2" fill="none"/><use xlink:href="#a" transform="matrix(6.123233995736766e-17,-1,1,6.123233995736766e-17,135.11047363281264,492.8759765625) translate(49.21604938271605 33.111111111111114)"/><use xlink:href="#b" transform="matrix(6.123233995736766e-17,-1,1,6.123233995736766e-17,135.1104736328126,909.7509765625) translate(132.9135802469136 33.111111111111114)"/><use xlink:href="#c" transform="matrix(6.123233995736766e-17,-1,1,6.123233995736766e-17,135.11047363281259,1260) translate(117.59876543209876 33.111111111111114)"/><path d="M377.1 338.67c22.1 0 40 17.9 40 40s-17.9 40-40 40h-120c-22.08 0-40-17.9-40-40s17.92-40 40-40z" stroke="#666" stroke-width="2" fill="#ccc"/><use xlink:href="#d" transform="matrix(1,0,0,1,217.11047363281273,338.6666666666666) translate(13.654999999999982 31.9)"/><use xlink:href="#e" transform="matrix(1,0,0,1,217.11047363281273,338.6666666666666) translate(35.65499999999998 31.9)"/><use xlink:href="#f" transform="matrix(1,0,0,1,217.11047363281273,338.6666666666666) translate(120.405 31.9)"/><use xlink:href="#g" transform="matrix(1,0,0,1,217.11047363281273,338.6666666666666) translate(166.35500000000002 31.9)"/><use xlink:href="#h" transform="matrix(1,0,0,1,217.11047363281273,338.6666666666666) translate(181.35500000000002 31.9)"/><use xlink:href="#i" transform="matrix(1,0,0,1,217.11047363281273,338.6666666666666) translate(62.07999999999999 53.5)"/><path d="M335.9 622.87c2.27-1.6 5.93-1.6 8.2 0l91.8 64.26c2.27 1.6 2.27 4.15 0 5.74l-91.8 64.26c-2.27 1.6-5.93 1.6-8.2 0l-91.8-64.26c-2.27-1.6-2.27-4.15 0-5.74z" stroke="#666" stroke-width="2" fill="#83bbe5"/><use xlink:href="#j" transform="matrix(1,0,0,1,240,620) translate(27.105 66.9)"/><use xlink:href="#k" transform="matrix(1,0,0,1,240,620) translate(60.05500000000001 66.9)"/><use xlink:href="#l" transform="matrix(1,0,0,1,240,620) translate(121.95500000000001 66.9)"/><use xlink:href="#m" transform="matrix(1,0,0,1,240,620) translate(50.555 88.5)"/><use xlink:href="#n" transform="matrix(1,0,0,1,240,620) translate(70.555 88.5)"/><path d="M967.73 560c17.64 0 31.94 13.47 31.94 30.08 0 16.62-14.3 30.1-31.94 30.1h-95.8c-17.63 0-31.93-13.48-31.93-30.1 0-16.6 14.3-30.08 31.93-30.08z" stroke="#666" stroke-width="2" fill="#ff8f80"/><use xlink:href="#o" transform="matrix(1,0,0,1,840,560) translate(66.055 33.4625)"/><path d="M1220 705c0-2.76 2.24-5 5-5h150c2.76 0 5 2.24 5 5v110c0 2.76-2.24 5-5 5h-150c-2.76 0-5-2.24-5-5z" stroke="#666" stroke-width="2" fill="#a3d977"/><use xlink:href="#p" transform="matrix(1,0,0,1,1220,700) translate(26.64999999999999 63.15)"/><use xlink:href="#q" transform="matrix(1,0,0,1,1220,700) translate(90.5 63.15)"/><path d="M622.53 774.84l.8 2.5 2 1.46 1.28.2h33.93v2h-34.08l-1.9-.3-2.9-2.13-1.12-3.4v-13.88h2zm44.74-84.73l2.12 2.92.3 1.9v5.24l-1.1 3.4-2.92 2.13-1.9.3h-37.1l-2.5.82-1.45 2-.2 1.26v29.6h-2v-29.76l.3-1.9 2.13-2.9 3.4-1.12h37.26l1.26-.2 2-1.46.82-2.5v-4.76l-.2-1.26-1.46-2-2.5-.82H439.4v-2h224.46z" fill="#999"/><path d="M439.42 691h-1.07l.1-2h.97zM661.53 781h-1.03v-2h1.03z" fill="#999"/><use xlink:href="#r" transform="matrix(1,0,0,1,613.027241,739.6899411117679) translate(0 14.4)"/><path d="M743.12 591.08h-99.26l-2.5.82-1.46 2-.2 1.26v90l-1.1 3.4-2.92 2.13-1.9.3H439.4v-2h194.22l1.26-.2 2-1.46.82-2.5V595l.3-1.9 2.13-2.9 3.4-1.12h99.6zm77.38 0h-53.48v-2h53.48zM835.76 590.08l-14.26 4.64v-9.27z" fill="#999"/><path d="M839 590.08l-18.5 6.02v-12.03zm-16.5 3.26l10.03-3.26-10.03-3.26zM439.42 691h-1.07l.1-2h.97z" fill="#999"/><use xlink:href="#s" transform="matrix(1,0,0,1,743.1248036591813,579.28333333334) translate(0 14.4)"/><path d="M32 37c0-2.76 2.24-5 5-5h838c2.76 0 5 2.24 5 5v38c0 2.76-2.24 5-5 5H37c-2.76 0-5-2.24-5-5z" fill="none"/><use xlink:href="#t" transform="matrix(1,0,0,1,32,32) translate(0 31.11111111111111)"/><use xlink:href="#u" transform="matrix(1,0,0,1,32,32) translate(187.4567901234568 31.11111111111111)"/><use xlink:href="#v" transform="matrix(1,0,0,1,32,32) translate(246.61728395061732 31.11111111111111)"/><path d="M32.33 80H1727M32.36 80h-1.03M1726.97 80h1.03" stroke="#999" stroke-width="2" fill="none"/><path d="M1040 37c0-2.76 2.24-5 5-5h678c2.76 0 5 2.24 5 5v38c0 2.76-2.24 5-5 5h-678c-2.76 0-5-2.24-5-5z" fill="none"/><use xlink:href="#w" transform="matrix(1,0,0,1,1040,32) translate(299.85185185185577 28.4444444444444)"/><use xlink:href="#x" transform="matrix(1,0,0,1,1040,32) translate(363.9259259259292 28.4444444444444)"/><use xlink:href="#y" transform="matrix(1,0,0,1,1040,32) translate(468.8641975308664 28.4444444444444)"/><use xlink:href="#z" transform="matrix(1,0,0,1,1040,32) translate(493.12345679012543 28.4444444444444)"/><use xlink:href="#A" transform="matrix(1,0,0,1,1040,32) translate(601.580246913581 28.4444444444444)"/><use xlink:href="#B" transform="matrix(1,0,0,1,1040,32) translate(638.6172839506178 28.4444444444444)"/><path d="M419.1 378.67H458" stroke="#999" stroke-width="2" fill="none"/><path d="M419.14 379.67h-1.1l.07-1-.02-1h1.06zM459 379.67h-1.03v-2H459z" fill="#999"/><path d="M642 376.67h34c3.87 0 7 3.13 7 7V505c0 3.87-3.13 7-7 7H345c-1.66 0-3 1.34-3 3v29.76c0 1.66 1.34 3 3 3h12.8c2.32 0 4.2 1.9 4.2 4.2 0 2.33-1.88 4.22-4.2 4.22H345c-1.66 0-3 1.34-3 3v43" stroke="#999" stroke-width="2" fill="none"/><path d="M642 380.67h34c1.66 0 3 1.34 3 3V505c0 1.66-1.34 3-3 3H345c-3.87 0-7 3.13-7 7v29.76c0 3.87 3.13 7 7 7h12.8c.1 0 .2.1.2.2 0 .12-.1.22-.2.22H345c-3.87 0-7 3.13-7 7v43" stroke="#999" stroke-width="2" fill="none"/><path d="M642.03 377.67H641v-2h1.03zM642.03 381.67H641v-2h1.03z" fill="#999"/><path d="M340 617.45l-4.64-14.27h9.28z" stroke="#999" stroke-width="2" fill="#999"/><path d="M1038.55 182.1l1.12 2.7v400.48l-1.12 2.7-2.68 1.1h-34.2v-2h33.8l1.55-.64.65-1.56V185.2l-.65-1.56-1.55-.64H502.4v-2h533.47z" fill="#999"/><path d="M1037.56 177.2l3.12 1.54 2.2 2.73.8 3.42v400.24l-.22 1.83-1.53 3.13-2.74 2.2-3.42.78h-34.1v-2h33.87l2.75-.63 2.03-1.63 1.18-2.42.17-1.37V185.1l-.64-2.73-1.63-2.03-2.4-1.18-1.4-.16H502.4v-2h533.32z" fill="#999"/><path d="M1001.7 589.08h-1.1l-.17-2h1.26zM1001.7 593.08h-1.26l.15-2h1.1zM501.4 184.64L487.12 180l14.26-4.64z" fill="#999"/><path d="M502.4 186l-18.5-6 18.5-6zm-12.04-6l10.03 3.26v-6.52z" fill="#999"/><path d="M736 723c2.2-1.66 5.8-1.66 8 0l72 54c2.2 1.66 2.2 4.34 0 6l-72 54c-2.2 1.66-5.8 1.66-8 0l-72-54c-2.2-1.66-2.2-4.34 0-6z" stroke="#666" stroke-width="2" fill="#fff"/><use xlink:href="#C" transform="matrix(1,0,0,1,665,725) translate(38.055 59.0875)"/><use xlink:href="#D" transform="matrix(1,0,0,1,665,725) translate(86.005 59.0875)"/><path d="M819.47 780h16c2.76 0 5-2.24 5-5v-10c0-2.76 2.24-5 5-5h355.03" stroke="#999" stroke-width="2" fill="none"/><path d="M819.5 781h-1.03v-2h1.03z" fill="#999"/><path d="M1215.76 760l-14.26 4.64v-9.28z" stroke="#999" stroke-width="2" fill="#999"/><use xlink:href="#E" transform="matrix(1,0,0,1,950.5079716471979,734.4) translate(0.004999999999999005 14.4)"/><use xlink:href="#F" transform="matrix(1,0,0,1,950.5079716471979,734.4) translate(35.955 14.4)"/><path d="M986.15 660H745.08l-1.26.2-2 1.46-.82 2.5v55.6h-2v-55.92l1.1-3.4 2.92-2.13 1.9-.3h241.23zm312.42-.9l2.12 2.92.3 1.9v16.58h-2v-16.42l-.2-1.26-1.46-2-2.5-.82H1032.1v-2h263.06z" fill="#999"/><path d="M741 720.9l-1-.15-1 .14v-1.18h2zM1300 695.76l-4.64-14.26h9.28z" fill="#999"/><path d="M1300 699l-6-18.5h12zm-3.26-16.5l3.26 10.03 3.26-10.03z" fill="#999"/><use xlink:href="#E" transform="matrix(1,0,0,1,986.1516170822271,648.2) translate(0.004999999999999005 14.4)"/><use xlink:href="#G" transform="matrix(1,0,0,1,986.1516170822271,648.2) translate(35.955 14.4)"/><path d="M740 840.25V875c0 2.76 2.24 5 5 5h270c2.76 0 5-2.24 5-5v-10c0-2.76 2.24-5 5-5h270c2.76 0 5-2.24 5-5v-15.5" stroke="#999" stroke-width="2" fill="none"/><path d="M741 840.28h-2v-1.17l1 .15 1-.14z" fill="#999"/><path d="M1300 824.24l4.64 14.26h-9.28z" stroke="#999" stroke-width="2" fill="#999"/><use xlink:href="#E" transform="matrix(1,0,0,1,991.0658722476428,835.5793899182281) translate(0.004999999999999005 14.4)"/><use xlink:href="#H" transform="matrix(1,0,0,1,991.0658722476428,835.5793899182281) translate(35.955 14.4)"/><path d="M460 318.67h175c2.76 0 5 2.24 5 5v110c0 2.76-2.24 5-5 5H465c-2.76 0-5-2.24-5-5zm18 0v120m-18-102h180" stroke="#666" stroke-width="2" fill="#fff"/><use xlink:href="#I" transform="matrix(1,0,0,1,483,341.6666666666666) translate(29.549999999999997 28.775)"/><use xlink:href="#J" transform="matrix(1,0,0,1,483,341.6666666666666) translate(56.55 28.775)"/><use xlink:href="#K" transform="matrix(1,0,0,1,483,341.6666666666666) translate(29.574999999999996 50.375)"/><use xlink:href="#L" transform="matrix(1,0,0,1,483,341.6666666666666) translate(96.475 50.375)"/><use xlink:href="#M" transform="matrix(1,0,0,1,483,341.6666666666666) translate(36.12499999999999 71.97500000000001)"/><path d="M182.73 984.2c-1.5-2.33-.5-4.2 2.27-4.2h172.9c2.75 0 3.77 1.87 2.26 4.2l-85.98 131.6c-1.5 2.33-3.96 2.33-5.47 0z" stroke="#666" stroke-width="2" fill="#fff"/><use xlink:href="#N" transform="matrix(1,0,0,1,185,985) translate(24.32999999999999 14.4)"/><use xlink:href="#O" transform="matrix(1,0,0,1,185,985) translate(81.78 14.4)"/><use xlink:href="#P" transform="matrix(1,0,0,1,185,985) translate(138.68 14.4)"/><use xlink:href="#Q" transform="matrix(1,0,0,1,185,985) translate(60.08 36)"/><path d="M594.56 1043c2.2-1.66 5.8-1.66 8 0l72 54c2.2 1.66 2.2 4.34 0 6l-72 54c-2.2 1.66-5.8 1.66-8 0l-72-54c-2.2-1.66-2.2-4.34 0-6z" stroke="#666" stroke-width="2" fill="#fff"/><use xlink:href="#R" transform="matrix(1,0,0,1,523.5552368164064,1045) translate(19.604999999999997 59.0875)"/><use xlink:href="#S" transform="matrix(1,0,0,1,523.5552368164064,1045) translate(72.555 59.0875)"/><path d="M1100 1030h155c2.76 0 5 2.24 5 5v110c0 2.76-2.24 5-5 5h-150c-2.76 0-5-2.24-5-5zm16 0v120m-16-104h160" stroke="#666" stroke-width="2" fill="#fff"/><use xlink:href="#I" transform="matrix(1,0,0,1,1121,1051) translate(20.549999999999997 40.8375)"/><use xlink:href="#J" transform="matrix(1,0,0,1,1121,1051) translate(47.55 40.8375)"/><use xlink:href="#T" transform="matrix(1,0,0,1,1121,1051) translate(30.574999999999996 62.4375)"/><path d="M849.6 1101H678.02v-2H849.6zm230.9-10H926.44v-2h154.06z" fill="#999"/><path d="M678.05 1101h-1.02v-2h1.02zM1095.76 1090l-14.26 4.64v-9.28z" fill="#999"/><path d="M1099 1090l-18.5 6v-12zm-16.5 3.26l10.03-3.26-10.03-3.26z" fill="#999"/><use xlink:href="#U" transform="matrix(1,0,0,1,849.5889979082033,1084.2) translate(0.005000000000002558 14.4)"/><use xlink:href="#F" transform="matrix(1,0,0,1,849.5889979082033,1084.2) translate(66.85500000000002 14.4)"/><path d="M1058.57 1010.1l2.12 2.92.3 1.9v69.92l.82 2.5 2 1.46 1.26.2h15.42v2h-15.58l-1.9-.3-2.9-2.13-1.12-3.4v-70.1l-.2-1.25-1.46-2-2.5-.82h-451.2l-1.27.2-2 1.46-.8 2.5v24.6h-2v-24.92l1.1-3.4 2.9-2.13 1.9-.3h451.7z" fill="#999"/><path d="M599.56 1040.9l-1-.15-1 .14v-1.18h2zM1095.76 1090l-14.26 4.64v-9.28z" fill="#999"/><path d="M1099 1090l-18.5 6v-12zm-16.5 3.26l10.03-3.26-10.03-3.26z" fill="#999"/><g><use xlink:href="#U" transform="matrix(1,0,0,1,860.1146810259256,1014) translate(0.005000000000002558 14.4)"/><use xlink:href="#G" transform="matrix(1,0,0,1,860.1146810259256,1014) translate(66.85500000000002 14.4)"/></g><path d="M599.56 1194.1l.8 2.5 2 1.45 1.28.2h241.34v2h-241.5l-1.9-.3-2.9-2.13-1.12-3.4v-34.17h2zM1098 1091h-33.92l-1.26.2-2 1.46-.82 2.5v99.17l-.3 1.9-2.13 2.9-3.4 1.12H921.82v-2h132l2.5-.8 1.47-2 .2-1.28v-99.33l1.1-3.4 2.92-2.13 1.9-.3H1098z" fill="#999"/><path d="M599.56 1160.28h-2v-1.17l1 .15 1-.14zM1099 1091h-1.03v-2h1.03z" fill="#999"/><g><use xlink:href="#U" transform="matrix(1,0,0,1,844.9792354904303,1188.4532341644542) translate(0.005000000000002558 14.4)"/><use xlink:href="#H" transform="matrix(1,0,0,1,844.9792354904303,1188.4532341644542) translate(66.85500000000002 14.4)"/></g><path d="M1262 1090h176" stroke="#999" stroke-width="2" fill="none"/><path d="M1262.03 1091H1261v-2h1.03zM1439 1089.96v.23l.07.8h-1.1v-2h1.1z" fill="#999"/><path d="M1567.73 1059.92c17.64 0 31.94 13.47 31.94 30.08 0 16.6-14.3 30.08-31.94 30.08h-95.8c-17.63 0-31.93-13.47-31.93-30.08 0-16.6 14.3-30.08 31.93-30.08z" stroke="#666" stroke-width="2" fill="#ff8f80"/><g><use xlink:href="#V" transform="matrix(1,0,0,1,1440,1059.91666666666) translate(66.055 33.4625)"/></g><path d="M1440 700h175c2.76 0 5 2.24 5 5v110c0 2.76-2.24 5-5 5h-170c-2.76 0-5-2.24-5-5zm18 0v120m-18-102h180" stroke="#666" stroke-width="2" fill="#fff"/><g><use xlink:href="#I" transform="matrix(1,0,0,1,1463,723) translate(29.549999999999997 37.4)"/><use xlink:href="#W" transform="matrix(1,0,0,1,1463,723) translate(56.55 37.4)"/><use xlink:href="#X" transform="matrix(1,0,0,1,1463,723) translate(1.174999999999983 59)"/><use xlink:href="#Y" transform="matrix(1,0,0,1,1463,723) translate(72.02499999999999 59)"/><use xlink:href="#Z" transform="matrix(1,0,0,1,1463,723) translate(97.975 59)"/></g><path d="M1382 760h38.5" stroke="#999" stroke-width="2" fill="none"/><path d="M1382.03 761H1381v-2h1.03z" fill="#999"/><path d="M1435.76 760l-14.26 4.64v-9.28z" stroke="#999" stroke-width="2" fill="#999"/><path d="M1659.53 757.8l2.73 2.18 1.53 3.13.2 1.84V934.1l-.8 3.43-2.18 2.73-3.13 1.53-1.84.2H276.64l-1.55.64-.66 1.56v16.3h-2v-16.7l1.12-2.7 2.7-1.1h1379.68l1.38-.16 2.42-1.18 1.63-2.03.63-2.74V765.05l-.16-1.38-1.18-2.42-2.03-1.63-2.74-.63H1622v-2h34.1z" fill="#999"/><path d="M1658.9 762.1l1.1 2.7v169.4l-1.1 2.7-2.7 1.1H276.56l-2.75.63-2.02 1.63-1.18 2.42-.16 1.38v16.44h-2v-16.56l.22-1.83 1.52-3.12 2.74-2.2 3.4-.78H1655.8l1.56-.64.64-1.56V765.2l-.64-1.56-1.56-.64H1622v-2h34.2zM1622.03 759H1621v-2h1.03z" fill="#999"/><path d="M1622.03 763H1621v-2h1.03zM271.44 975.76l-4.63-14.26h9.28z" fill="#999"/><path d="M271.44 979l-6-18.5h12.02zm-3.25-16.5l3.24 10.03 3.26-10.03zM1181 1235.16l-1.1 3.4-2.92 2.13-1.9.3H427.73l-3.4-1.1-2.13-2.92-.3-1.9v-55.58h2v55.42l.2 1.26 1.45 2 2.5.82h746.87l1.26-.2 2-1.46.82-2.5V1152h2z" fill="#999"/><path d="M1181 1152.03h-2V1151h2zM427.52 1178.5h-9.27l4.64-14.26z" fill="#999"/><path d="M428.9 1179.5h-12.02l6-18.5zm-9.27-2h6.52l-3.26-10.03z" fill="#999"/><path d="M482.9 1148c0 6.63-26.87 12-60 12-33.15 0-60-5.37-60-12v-96c0-6.63 26.85-12 60-12 33.13 0 60 5.37 60 12z" stroke="#666" stroke-width="2" fill="#fff"/><path d="M482.9 1052c0 6.63-26.87 12-60 12-33.15 0-60-5.37-60-12" stroke="#666" stroke-width="2" fill="none"/><g><use xlink:href="#aa" transform="matrix(1,0,0,1,367.8895263671873,1069) translate(20.549999999999997 35.9)"/><use xlink:href="#ab" transform="matrix(1,0,0,1,367.8895263671873,1069) translate(68.5 35.9)"/><use xlink:href="#ac" transform="matrix(1,0,0,1,367.8895263671873,1069) translate(31.075 57.5)"/></g><path d="M484.9 1100h16.68" stroke="#999" stroke-width="2" fill="none"/><path d="M484.92 1101h-1.03v-2h1.02z" fill="#999"/><path d="M516.85 1100l-14.27 4.64v-9.28z" stroke="#999" stroke-width="2" fill="#999"/><path d="M319.36 1050h15.77c2.76 0 5 2.24 5 5v41.74c0 1.8 1.46 3.26 3.26 3.26" stroke="#999" stroke-width="2" fill="none"/><path d="M319.4 1051h-1.7l1.3-2h.4z" fill="#999"/><path d="M358.65 1100l-14.26 4.64v-9.28z" stroke="#999" stroke-width="2" fill="#999"/><path d="M482.9 228c0 6.63-26.87 12-60 12-33.15 0-60-5.37-60-12v-96c0-6.63 26.85-12 60-12 33.13 0 60 5.37 60 12z" stroke="#666" stroke-width="2" fill="#fff"/><path d="M482.9 132c0 6.63-26.87 12-60 12-33.15 0-60-5.37-60-12" stroke="#666" stroke-width="2" fill="none"/><g><use xlink:href="#aa" transform="matrix(1,0,0,1,367.8895263671875,149) translate(20.549999999999997 35.9)"/><use xlink:href="#ab" transform="matrix(1,0,0,1,367.8895263671875,149) translate(68.5 35.9)"/><use xlink:href="#ac" transform="matrix(1,0,0,1,367.8895263671875,149) translate(31.075 57.5)"/></g><path d="M360.9 180h-38.8c-2.75 0-5 2.24-5 5v134.16" stroke="#999" stroke-width="2" fill="none"/><path d="M361.9 181h-1.04v-2h1.03z" fill="#999"/><path d="M317.1 334.43l-4.62-14.27h9.27z" stroke="#999" stroke-width="2" fill="#999"/><defs><path fill="#333" d="M24 0v-248h52V0H24" id="ad"/><path fill="#333" d="M175 0L67-191c6 58 2 128 3 191H24v-248h59L193-55c-6-58-2-129-3-193h46V0h-61" id="ae"/><path fill="#333" d="M24-248c120-7 223 5 221 122C244-46 201 0 124 0H24v-248zM76-40c74 7 117-18 117-86 0-67-45-88-117-82v168" id="af"/><path fill="#333" d="M147 0H94L2-248h55l64 206c17-72 42-137 63-206h54" id="ag"/><path fill="#333" d="M238-95c0 69-44 99-111 99C63 4 22-25 22-93v-155h51v151c-1 38 19 59 55 60 90 1 49-130 58-211h52v153" id="ah"/><path fill="#333" d="M140-251c80 0 125 45 125 126S219 4 139 4C58 4 15-44 15-125s44-126 125-126zm-1 214c52 0 73-35 73-88 0-50-21-86-72-86-52 0-73 35-73 86s22 88 72 88" id="ai"/><g id="a"><use transform="matrix(0.06172839506172839,0,0,0.06172839506172839,0,0)" xlink:href="#ad"/><use transform="matrix(0.06172839506172839,0,0,0.06172839506172839,6.172839506172839,0)" xlink:href="#ae"/><use transform="matrix(0.06172839506172839,0,0,0.06172839506172839,22.160493827160494,0)" xlink:href="#af"/><use transform="matrix(0.06172839506172839,0,0,0.06172839506172839,38.148148148148145,0)" xlink:href="#ad"/><use transform="matrix(0.06172839506172839,0,0,0.06172839506172839,44.32098765432099,0)" xlink:href="#ag"/><use transform="matrix(0.06172839506172839,0,0,0.06172839506172839,59.1358024691358,0)" xlink:href="#ad"/><use transform="matrix(0.06172839506172839,0,0,0.06172839506172839,65.30864197530863,0)" xlink:href="#af"/><use transform="matrix(0.06172839506172839,0,0,0.06172839506172839,81.29629629629629,0)" xlink:href="#ah"/><use transform="matrix(0.06172839506172839,0,0,0.06172839506172839,97.28395061728395,0)" xlink:href="#ai"/></g><path fill="#333" d="M67-125c0 54 23 88 75 88 28 0 53-7 68-21v-34h-60v-39h108v91C232-14 192 4 140 4 58 4 20-42 15-125 8-236 126-280 215-234c19 10 29 26 37 47l-47 15c-11-23-29-39-63-39-53 1-75 33-75 86" id="aj"/><path fill="#333" d="M199 0l-22-63H83L61 0H9l90-248h61L250 0h-51zm-33-102l-36-108c-10 38-24 72-36 108h72" id="ak"/><path fill="#333" d="M136-208V0H84v-208H4v-40h212v40h-80" id="al"/><path fill="#333" d="M24 0v-248h195v40H76v63h132v40H76v65h150V0H24" id="am"/><path fill="#333" d="M195 0l-88-114-31 24V0H24v-248h52v113l112-113h60L142-143 257 0h-62" id="an"/><path fill="#333" d="M24-248c93 1 206-16 204 79-1 75-69 88-152 82V0H24v-248zm52 121c47 0 100 7 100-41 0-47-54-39-100-39v80" id="ao"/><path fill="#333" d="M240-174c0 40-23 61-54 70L253 0h-59l-57-94H76V0H24v-248c93 4 217-23 216 74zM76-134c48-2 112 12 112-38 0-48-66-32-112-35v73" id="ap"/><g id="b"><use transform="matrix(0.06172839506172839,0,0,0.06172839506172839,0,0)" xlink:href="#aj"/><use transform="matrix(0.06172839506172839,0,0,0.06172839506172839,17.28395061728395,0)" xlink:href="#ak"/><use transform="matrix(0.06172839506172839,0,0,0.06172839506172839,31.604938271604937,0)" xlink:href="#al"/><use transform="matrix(0.06172839506172839,0,0,0.06172839506172839,45.123456790123456,0)" xlink:href="#am"/><use transform="matrix(0.06172839506172839,0,0,0.06172839506172839,59.938271604938265,0)" xlink:href="#an"/><use transform="matrix(0.06172839506172839,0,0,0.06172839506172839,75.92592592592592,0)" xlink:href="#am"/><use transform="matrix(0.06172839506172839,0,0,0.06172839506172839,90.74074074074073,0)" xlink:href="#am"/><use transform="matrix(0.06172839506172839,0,0,0.06172839506172839,105.55555555555554,0)" xlink:href="#ao"/><use transform="matrix(0.06172839506172839,0,0,0.06172839506172839,120.37037037037035,0)" xlink:href="#am"/><use transform="matrix(0.06172839506172839,0,0,0.06172839506172839,135.18518518518516,0)" xlink:href="#ap"/></g><path fill="#333" d="M67-125c0 53 21 87 73 88 37 1 54-22 65-47l45 17C233-25 199 4 140 4 58 4 20-42 15-125 8-235 124-281 211-232c18 10 29 29 36 50l-46 12c-8-25-30-41-62-41-52 0-71 34-72 86" id="aq"/><path fill="#333" d="M230 0l2-204L168 0h-37L68-204 70 0H24v-248h70l56 185 57-185h69V0h-46" id="ar"/><g id="c"><use transform="matrix(0.06172839506172839,0,0,0.06172839506172839,0,0)" xlink:href="#aq"/><use transform="matrix(0.06172839506172839,0,0,0.06172839506172839,15.987654320987653,0)" xlink:href="#ai"/><use transform="matrix(0.06172839506172839,0,0,0.06172839506172839,33.2716049382716,0)" xlink:href="#ar"/><use transform="matrix(0.06172839506172839,0,0,0.06172839506172839,51.72839506172839,0)" xlink:href="#am"/><use transform="matrix(0.06172839506172839,0,0,0.06172839506172839,66.5432098765432,0)" xlink:href="#af"/><use transform="matrix(0.06172839506172839,0,0,0.06172839506172839,82.53086419753086,0)" xlink:href="#ai"/><use transform="matrix(0.06172839506172839,0,0,0.06172839506172839,99.81481481481481,0)" xlink:href="#ap"/></g><path fill="#333" d="M25 0v-261h50V0H25" id="as"/><g id="d"><use transform="matrix(0.05,0,0,0.05,0,0)" xlink:href="#am"/><use transform="matrix(0.05,0,0,0.05,12,0)" xlink:href="#as"/></g><path fill="#333" d="M25-224v-37h50v37H25zM25 0v-190h50V0H25" id="at"/><path fill="#333" d="M135-194c87-1 58 113 63 194h-50c-7-57 23-157-34-157-59 0-34 97-39 157H25l-1-190h47c2 12-1 28 3 38 12-26 28-41 61-42" id="au"/><path fill="#333" d="M88-194c31-1 46 15 58 34l-1-101h50l1 261h-48c-2-10 0-23-3-31C134-8 116 4 84 4 32 4 16-41 15-95c0-56 19-97 73-99zm17 164c33 0 40-30 41-66 1-37-9-64-41-64s-38 30-39 65c0 43 13 65 39 65" id="av"/><path fill="#333" d="M128 0H69L1-190h53L99-40l48-150h52" id="aw"/><path fill="#333" d="M85 4C-2 5 27-109 22-190h50c7 57-23 150 33 157 60-5 35-97 40-157h50l1 190h-47c-2-12 1-28-3-38-12 25-28 42-61 42" id="ax"/><path fill="#333" d="M110-194c64 0 96 36 96 99 0 64-35 99-97 99-61 0-95-36-95-99 0-62 34-99 96-99zm-1 164c35 0 45-28 45-65 0-40-10-65-43-65-34 0-45 26-45 65 0 36 10 65 43 65" id="ay"/><g id="e"><use transform="matrix(0.05,0,0,0.05,0,0)" xlink:href="#at"/><use transform="matrix(0.05,0,0,0.05,5,0)" xlink:href="#au"/><use transform="matrix(0.05,0,0,0.05,15.950000000000001,0)" xlink:href="#av"/><use transform="matrix(0.05,0,0,0.05,26.900000000000002,0)" xlink:href="#at"/><use transform="matrix(0.05,0,0,0.05,31.900000000000002,0)" xlink:href="#aw"/><use transform="matrix(0.05,0,0,0.05,41.900000000000006,0)" xlink:href="#at"/><use transform="matrix(0.05,0,0,0.05,46.900000000000006,0)" xlink:href="#av"/><use transform="matrix(0.05,0,0,0.05,57.85,0)" xlink:href="#ax"/><use transform="matrix(0.05,0,0,0.05,68.80000000000001,0)" xlink:href="#ay"/></g><path fill="#333" d="M185-48c-13 30-37 53-82 52C43 2 14-33 14-96s30-98 90-98c62 0 83 45 84 108H66c0 31 8 55 39 56 18 0 30-7 34-22zm-45-69c5-46-57-63-70-21-2 6-4 13-4 21h74" id="az"/><path fill="#333" d="M195-6C206 82 75 100 31 46c-4-6-6-13-8-21l49-6c3 16 16 24 34 25 40 0 42-37 40-79-11 22-30 35-61 35-53 0-70-43-70-97 0-56 18-96 73-97 30 0 46 14 59 34l2-30h47zm-90-29c32 0 41-27 41-63 0-35-9-62-40-62-32 0-39 29-40 63 0 36 9 62 39 62" id="aA"/><path fill="#333" d="M133-34C117-15 103 5 69 4 32 3 11-16 11-54c-1-60 55-63 116-61 1-26-3-47-28-47-18 1-26 9-28 27l-52-2c7-38 36-58 82-57s74 22 75 68l1 82c-1 14 12 18 25 15v27c-30 8-71 5-69-32zm-48 3c29 0 43-24 42-57-32 0-66-3-65 30 0 17 8 27 23 27" id="aB"/><g id="f"><use transform="matrix(0.05,0,0,0.05,0,0)" xlink:href="#as"/><use transform="matrix(0.05,0,0,0.05,5,0)" xlink:href="#as"/><use transform="matrix(0.05,0,0,0.05,10,0)" xlink:href="#az"/><use transform="matrix(0.05,0,0,0.05,20,0)" xlink:href="#aA"/><use transform="matrix(0.05,0,0,0.05,30.950000000000003,0)" xlink:href="#aB"/></g><use transform="matrix(0.05,0,0,0.05,0,0)" xlink:href="#aB" id="g"/><use transform="matrix(0.05,0,0,0.05,0,0)" xlink:href="#as" id="h"/><path fill="#333" d="M190-63c-7 42-38 67-86 67-59 0-84-38-90-98-12-110 154-137 174-36l-49 2c-2-19-15-32-35-32-30 0-35 28-38 64-6 74 65 87 74 30" id="aC"/><path fill="#333" d="M220-157c-53 9-28 100-34 157h-49v-107c1-27-5-49-29-50C55-147 81-57 75 0H25l-1-190h47c2 12-1 28 3 38 10-53 101-56 108 0 13-22 24-43 59-42 82 1 51 116 57 194h-49v-107c-1-25-5-48-29-50" id="aD"/><path fill="#333" d="M135-150c-39-12-60 13-60 57V0H25l-1-190h47c2 13-1 29 3 40 6-28 27-53 61-41v41" id="aE"/><g id="i"><use transform="matrix(0.05,0,0,0.05,0,0)" xlink:href="#aC"/><use transform="matrix(0.05,0,0,0.05,10,0)" xlink:href="#ay"/><use transform="matrix(0.05,0,0,0.05,20.950000000000003,0)" xlink:href="#aD"/><use transform="matrix(0.05,0,0,0.05,36.95,0)" xlink:href="#az"/><use transform="matrix(0.05,0,0,0.05,46.95,0)" xlink:href="#av"/><use transform="matrix(0.05,0,0,0.05,57.900000000000006,0)" xlink:href="#ay"/><use transform="matrix(0.05,0,0,0.05,68.85000000000001,0)" xlink:href="#aE"/></g><path fill="#333" d="M109 61C26 68-9-28 56-69c17-10 36-20 38-46h47c-2 56-65 53-71 103-2 21 17 33 39 33 26 0 39-15 44-37l50 2c-8 47-39 70-94 75zm33-251v47H91v-47h51" id="aF"/><g id="j"><use transform="matrix(0.05,0,0,0.05,0,0)" xlink:href="#aF"/><use transform="matrix(0.05,0,0,0.05,10.950000000000001,0)" xlink:href="#am"/><use transform="matrix(0.05,0,0,0.05,22.950000000000003,0)" xlink:href="#as"/></g><path fill="#333" d="M115-3C79 11 28 4 28-45v-112H4v-33h27l15-45h31v45h36v33H77v99c-1 23 16 31 38 25v30" id="aG"/><g id="k"><use transform="matrix(0.05,0,0,0.05,0,0)" xlink:href="#aC"/><use transform="matrix(0.05,0,0,0.05,10,0)" xlink:href="#as"/><use transform="matrix(0.05,0,0,0.05,15,0)" xlink:href="#at"/><use transform="matrix(0.05,0,0,0.05,20,0)" xlink:href="#az"/><use transform="matrix(0.05,0,0,0.05,30,0)" xlink:href="#au"/><use transform="matrix(0.05,0,0,0.05,40.95,0)" xlink:href="#aG"/><use transform="matrix(0.05,0,0,0.05,46.900000000000006,0)" xlink:href="#az"/></g><path fill="#333" d="M137-138c1-29-70-34-71-4 15 46 118 7 119 86 1 83-164 76-172 9l43-7c4 19 20 25 44 25 33 8 57-30 24-41C81-84 22-81 20-136c-2-80 154-74 161-7" id="aH"/><g id="l"><use transform="matrix(0.05,0,0,0.05,0,0)" xlink:href="#av"/><use transform="matrix(0.05,0,0,0.05,10.950000000000001,0)" xlink:href="#az"/><use transform="matrix(0.05,0,0,0.05,20.950000000000003,0)" xlink:href="#aH"/><use transform="matrix(0.05,0,0,0.05,30.950000000000003,0)" xlink:href="#az"/><use transform="matrix(0.05,0,0,0.05,40.95,0)" xlink:href="#aB"/></g><g id="m"><use transform="matrix(0.05,0,0,0.05,0,0)" xlink:href="#az"/><use transform="matrix(0.05,0,0,0.05,10,0)" xlink:href="#as"/></g><path fill="#333" d="M110-251c83-7 118 89 53 130-17 10-36 21-38 46H78c2-56 65-53 71-103 2-21-15-35-38-34-25 1-41 14-44 38l-50-2c6-48 39-70 93-75zM77 0v-47h51V0H77" id="aI"/><g id="n"><use transform="matrix(0.05,0,0,0.05,0,0)" xlink:href="#aH"/><use transform="matrix(0.05,0,0,0.05,10,0)" xlink:href="#az"/><use transform="matrix(0.05,0,0,0.05,20,0)" xlink:href="#aE"/><use transform="matrix(0.05,0,0,0.05,27,0)" xlink:href="#aw"/><use transform="matrix(0.05,0,0,0.05,37,0)" xlink:href="#at"/><use transform="matrix(0.05,0,0,0.05,42,0)" xlink:href="#aC"/><use transform="matrix(0.05,0,0,0.05,52,0)" xlink:href="#at"/><use transform="matrix(0.05,0,0,0.05,57,0)" xlink:href="#ay"/><use transform="matrix(0.05,0,0,0.05,67.95,0)" xlink:href="#aI"/></g><path fill="#333" d="M76-208v77h127v40H76V0H24v-248h183v40H76" id="aJ"/><g id="o"><use transform="matrix(0.05,0,0,0.05,0,0)" xlink:href="#aJ"/><use transform="matrix(0.05,0,0,0.05,10.950000000000001,0)" xlink:href="#at"/><use transform="matrix(0.05,0,0,0.05,15.950000000000001,0)" xlink:href="#au"/></g><path fill="#333" d="M135-194c52 0 70 43 70 98 0 56-19 99-73 100-30 1-46-15-58-35L72 0H24l1-261h50v104c11-23 29-37 60-37zM114-30c31 0 40-27 40-66 0-37-7-63-39-63s-41 28-41 65c0 36 8 64 40 64" id="aK"/><g id="p"><use transform="matrix(0.05,0,0,0.05,0,0)" xlink:href="#aq"/><use transform="matrix(0.05,0,0,0.05,12.950000000000001,0)" xlink:href="#ay"/><use transform="matrix(0.05,0,0,0.05,23.900000000000002,0)" xlink:href="#aK"/><use transform="matrix(0.05,0,0,0.05,34.85,0)" xlink:href="#aE"/><use transform="matrix(0.05,0,0,0.05,41.85,0)" xlink:href="#aB"/><use transform="matrix(0.05,0,0,0.05,51.85,0)" xlink:href="#aE"/></g><path fill="#333" d="M135-194c53 0 70 44 70 98 0 56-19 98-73 100-31 1-45-17-59-34 3 33 2 69 2 105H25l-1-265h48c2 10 0 23 3 31 11-24 29-35 60-35zM114-30c33 0 39-31 40-66 0-38-9-64-40-64-56 0-55 130 0 130" id="aL"/><g id="q"><use transform="matrix(0.05,0,0,0.05,0,0)" xlink:href="#aL"/><use transform="matrix(0.05,0,0,0.05,10.950000000000001,0)" xlink:href="#aB"/><use transform="matrix(0.05,0,0,0.05,20.950000000000003,0)" xlink:href="#aA"/><use transform="matrix(0.05,0,0,0.05,31.900000000000006,0)" xlink:href="#ay"/></g><path fill="#333" d="M169-182c-1-43-94-46-97-3 18 66 151 10 154 114 3 95-165 93-204 36-6-8-10-19-12-30l50-8c3 46 112 56 116 5-17-69-150-10-154-114-4-87 153-88 188-35 5 8 8 18 10 28" id="aM"/><path fill="#333" d="M25 0v-190h50V0H25zm-5-208v-5l45-51h45v8l-60 48H20" id="aN"/><g id="r"><use transform="matrix(0.05,0,0,0.05,0,0)" xlink:href="#aM"/><use transform="matrix(0.05,0,0,0.05,12,0)" xlink:href="#aN"/></g><g id="s"><use transform="matrix(0.05,0,0,0.05,0,0)" xlink:href="#ae"/><use transform="matrix(0.05,0,0,0.05,12.950000000000001,0)" xlink:href="#ay"/></g><path fill="#999" d="M24-248c93 1 206-16 204 79-1 75-69 88-152 82V0H24v-248zm52 121c47 0 100 7 100-41 0-47-54-39-100-39v80" id="aO"/><path fill="#999" d="M240-174c0 40-23 61-54 70L253 0h-59l-57-94H76V0H24v-248c93 4 217-23 216 74zM76-134c48-2 112 12 112-38 0-48-66-32-112-35v73" id="aP"/><path fill="#999" d="M140-251c80 0 125 45 125 126S219 4 139 4C58 4 15-44 15-125s44-126 125-126zm-1 214c52 0 73-35 73-88 0-50-21-86-72-86-52 0-73 35-73 86s22 88 72 88" id="aQ"/><path fill="#999" d="M67-125c0 53 21 87 73 88 37 1 54-22 65-47l45 17C233-25 199 4 140 4 58 4 20-42 15-125 8-235 124-281 211-232c18 10 29 29 36 50l-46 12c-8-25-30-41-62-41-52 0-71 34-72 86" id="aR"/><path fill="#999" d="M24 0v-248h195v40H76v63h132v40H76v65h150V0H24" id="aS"/><path fill="#999" d="M169-182c-1-43-94-46-97-3 18 66 151 10 154 114 3 95-165 93-204 36-6-8-10-19-12-30l50-8c3 46 112 56 116 5-17-69-150-10-154-114-4-87 153-88 188-35 5 8 8 18 10 28" id="aT"/><g id="t"><use transform="matrix(0.09876543209876544,0,0,0.09876543209876544,0,0)" xlink:href="#aO"/><use transform="matrix(0.09876543209876544,0,0,0.09876543209876544,23.703703703703706,0)" xlink:href="#aP"/><use transform="matrix(0.09876543209876544,0,0,0.09876543209876544,49.283950617283956,0)" xlink:href="#aQ"/><use transform="matrix(0.09876543209876544,0,0,0.09876543209876544,76.93827160493828,0)" xlink:href="#aR"/><use transform="matrix(0.09876543209876544,0,0,0.09876543209876544,102.51851851851853,0)" xlink:href="#aS"/><use transform="matrix(0.09876543209876544,0,0,0.09876543209876544,126.22222222222223,0)" xlink:href="#aT"/><use transform="matrix(0.09876543209876544,0,0,0.09876543209876544,149.92592592592595,0)" xlink:href="#aQ"/></g><path fill="#999" d="M24-248c120-7 223 5 221 122C244-46 201 0 124 0H24v-248zM76-40c74 7 117-18 117-86 0-67-45-88-117-82v168" id="aU"/><g id="u"><use transform="matrix(0.09876543209876544,0,0,0.09876543209876544,0,0)" xlink:href="#aU"/><use transform="matrix(0.09876543209876544,0,0,0.09876543209876544,25.58024691358025,0)" xlink:href="#aS"/></g><path fill="#999" d="M230 0l2-204L168 0h-37L68-204 70 0H24v-248h70l56 185 57-185h69V0h-46" id="aV"/><g id="v"><use transform="matrix(0.09876543209876544,0,0,0.09876543209876544,0,0)" xlink:href="#aR"/><use transform="matrix(0.09876543209876544,0,0,0.09876543209876544,25.58024691358025,0)" xlink:href="#aQ"/><use transform="matrix(0.09876543209876544,0,0,0.09876543209876544,53.23456790123457,0)" xlink:href="#aV"/><use transform="matrix(0.09876543209876544,0,0,0.09876543209876544,82.76543209876544,0)" xlink:href="#aS"/><use transform="matrix(0.09876543209876544,0,0,0.09876543209876544,106.46913580246914,0)" xlink:href="#aU"/><use transform="matrix(0.09876543209876544,0,0,0.09876543209876544,132.0493827160494,0)" xlink:href="#aQ"/><use transform="matrix(0.09876543209876544,0,0,0.09876543209876544,159.70370370370372,0)" xlink:href="#aP"/></g><path fill="#999" d="M30-248c118-7 216 8 213 122C240-48 200 0 122 0H30v-248zM63-27c89 8 146-16 146-99s-60-101-146-95v194" id="aW"/><path fill="#999" d="M24-231v-30h32v30H24zM24 0v-190h32V0H24" id="aX"/><path fill="#999" d="M141-36C126-15 110 5 73 4 37 3 15-17 15-53c-1-64 63-63 125-63 3-35-9-54-41-54-24 1-41 7-42 31l-33-3c5-37 33-52 76-52 45 0 72 20 72 64v82c-1 20 7 32 28 27v20c-31 9-61-2-59-35zM48-53c0 20 12 33 32 33 41-3 63-29 60-74-43 2-92-5-92 41" id="aY"/><path fill="#999" d="M117-194c89-4 53 116 60 194h-32v-121c0-31-8-49-39-48C34-167 62-67 57 0H25l-1-190h30c1 10-1 24 2 32 11-22 29-35 61-36" id="aZ"/><g id="w"><use transform="matrix(0.06172839506172778,0,0,0.06172839506172778,0,0)" xlink:href="#aW"/><use transform="matrix(0.06172839506172778,0,0,0.06172839506172778,15.987654320987495,0)" xlink:href="#aX"/><use transform="matrix(0.06172839506172778,0,0,0.06172839506172778,20.86419753086399,0)" xlink:href="#aY"/><use transform="matrix(0.06172839506172778,0,0,0.06172839506172778,33.209876543209546,0)" xlink:href="#aZ"/><use transform="matrix(0.06172839506172778,0,0,0.06172839506172778,45.5555555555551,0)" xlink:href="#aY"/></g><path fill="#999" d="M185-189c-5-48-123-54-124 2 14 75 158 14 163 119 3 78-121 87-175 55-17-10-28-26-33-46l33-7c5 56 141 63 141-1 0-78-155-14-162-118-5-82 145-84 179-34 5 7 8 16 11 25" id="ba"/><path fill="#999" d="M141-36C126-15 110 5 73 4 37 3 15-17 15-53c-1-64 63-63 125-63 3-35-9-54-41-54-24 1-41 7-42 31l-33-3c5-37 33-52 76-52 45 0 72 20 72 64v82c-1 20 7 32 28 27v20c-31 9-61-2-59-35zM48-53c0 20 12 33 32 33 41-3 63-29 60-74-43 2-92-5-92 41zm25-158c8-23 27-35 38-54h36v5l-58 49H73" id="bb"/><path fill="#999" d="M96-169c-40 0-48 33-48 73s9 75 48 75c24 0 41-14 43-38l32 2c-6 37-31 61-74 61-59 0-76-41-82-99-10-93 101-131 147-64 4 7 5 14 7 22l-32 3c-4-21-16-35-41-35" id="bc"/><path fill="#999" d="M106-169C34-169 62-67 57 0H25v-261h32l-1 103c12-21 28-36 61-36 89 0 53 116 60 194h-32v-121c2-32-8-49-39-48" id="bd"/><path fill="#999" d="M100-194c63 0 86 42 84 106H49c0 40 14 67 53 68 26 1 43-12 49-29l28 8c-11 28-37 45-77 45C44 4 14-33 15-96c1-61 26-98 85-98zm52 81c6-60-76-77-97-28-3 7-6 17-6 28h103" id="be"/><path fill="#999" d="M9 0v-24l116-142H16v-24h144v24L44-24h123V0H9" id="bf"/><g id="x"><use transform="matrix(0.06172839506172778,0,0,0.06172839506172778,0,0)" xlink:href="#ba"/><use transform="matrix(0.06172839506172778,0,0,0.06172839506172778,14.814814814814667,0)" xlink:href="#bb"/><use transform="matrix(0.06172839506172778,0,0,0.06172839506172778,27.160493827160224,0)" xlink:href="#aZ"/><use transform="matrix(0.06172839506172778,0,0,0.06172839506172778,39.50617283950578,0)" xlink:href="#bc"/><use transform="matrix(0.06172839506172778,0,0,0.06172839506172778,50.61728395061678,0)" xlink:href="#bd"/><use transform="matrix(0.06172839506172778,0,0,0.06172839506172778,62.96296296296234,0)" xlink:href="#be"/><use transform="matrix(0.06172839506172778,0,0,0.06172839506172778,75.30864197530789,0)" xlink:href="#bf"/></g><path fill="#999" d="M32 76v-337h29V76H32" id="bg"/><use transform="matrix(0.06172839506172778,0,0,0.06172839506172778,0,0)" xlink:href="#bg" id="y"/><path fill="#999" d="M190 0L58-211 59 0H30v-248h39L202-35l-2-213h31V0h-41" id="bh"/><path fill="#999" d="M100-194c62-1 85 37 85 99 1 63-27 99-86 99S16-35 15-95c0-66 28-99 85-99zM99-20c44 1 53-31 53-75 0-43-8-75-51-75s-53 32-53 75 10 74 51 75" id="bi"/><path fill="#999" d="M108 0H70L1-190h34L89-25l56-165h34" id="bj"/><path fill="#999" d="M210-169c-67 3-38 105-44 169h-31v-121c0-29-5-50-35-48C34-165 62-65 56 0H25l-1-190h30c1 10-1 24 2 32 10-44 99-50 107 0 11-21 27-35 58-36 85-2 47 119 55 194h-31v-121c0-29-5-49-35-48" id="bk"/><path fill="#999" d="M115-194c53 0 69 39 70 98 0 66-23 100-70 100C84 3 66-7 56-30L54 0H23l1-261h32v101c10-23 28-34 59-34zm-8 174c40 0 45-34 45-75 0-40-5-75-45-74-42 0-51 32-51 76 0 43 10 73 51 73" id="bl"/><path fill="#999" d="M114-163C36-179 61-72 57 0H25l-1-190h30c1 12-1 29 2 39 6-27 23-49 58-41v29" id="bm"/><g id="z"><use transform="matrix(0.06172839506172778,0,0,0.06172839506172778,0,0)" xlink:href="#bh"/><use transform="matrix(0.06172839506172778,0,0,0.06172839506172778,15.987654320987495,0)" xlink:href="#bi"/><use transform="matrix(0.06172839506172778,0,0,0.06172839506172778,28.33333333333305,0)" xlink:href="#bj"/><use transform="matrix(0.06172839506172778,0,0,0.06172839506172778,39.44444444444405,0)" xlink:href="#be"/><use transform="matrix(0.06172839506172778,0,0,0.06172839506172778,51.79012345678961,0)" xlink:href="#bk"/><use transform="matrix(0.06172839506172778,0,0,0.06172839506172778,70.24691358024621,0)" xlink:href="#bl"/><use transform="matrix(0.06172839506172778,0,0,0.06172839506172778,82.59259259259177,0)" xlink:href="#be"/><use transform="matrix(0.06172839506172778,0,0,0.06172839506172778,94.93827160493733,0)" xlink:href="#bm"/></g><path fill="#999" d="M27 0v-27h64v-190l-56 39v-29l58-41h29v221h61V0H27" id="bn"/><path fill="#999" d="M110-160c48 1 74 30 74 79 0 53-28 85-80 85-65 0-83-55-86-122-5-90 50-162 133-122 14 7 22 21 27 39l-31 6c-5-40-67-38-82-6-9 19-15 44-15 74 11-20 30-34 60-33zm-7 138c34 0 49-23 49-58s-16-56-50-56c-29 0-50 16-49 49 1 36 15 65 50 65" id="bo"/><path fill="#999" d="M68-38c1 34 0 65-14 84H32c9-13 17-26 17-46H33v-38h35" id="bp"/><g id="A"><use transform="matrix(0.06172839506172778,0,0,0.06172839506172778,0,0)" xlink:href="#bn"/><use transform="matrix(0.06172839506172778,0,0,0.06172839506172778,12.345679012345556,0)" xlink:href="#bo"/><use transform="matrix(0.06172839506172778,0,0,0.06172839506172778,24.691358024691112,0)" xlink:href="#bp"/></g><path fill="#999" d="M101-251c82-7 93 87 43 132L82-64C71-53 59-42 53-27h129V0H18c2-99 128-94 128-182 0-28-16-43-45-43s-46 15-49 41l-32-3c6-41 34-60 81-64" id="bq"/><path fill="#999" d="M101-251c68 0 85 55 85 127S166 4 100 4C33 4 14-52 14-124c0-73 17-127 87-127zm-1 229c47 0 54-49 54-102s-4-102-53-102c-51 0-55 48-55 102 0 53 5 102 54 102" id="br"/><path fill="#999" d="M99-251c64 0 84 50 84 122C183-37 130 33 47-8c-14-7-20-23-25-40l30-5c6 39 69 39 84 7 9-19 16-44 16-74-10 22-31 35-62 35-49 0-73-33-73-83 0-54 28-83 82-83zm-1 141c31-1 51-18 51-49 0-36-14-67-51-67-34 0-49 23-49 58 0 34 15 58 49 58" id="bs"/><g id="B"><use transform="matrix(0.06172839506172778,0,0,0.06172839506172778,0,0)" xlink:href="#bq"/><use transform="matrix(0.06172839506172778,0,0,0.06172839506172778,12.345679012345556,0)" xlink:href="#br"/><use transform="matrix(0.06172839506172778,0,0,0.06172839506172778,24.691358024691112,0)" xlink:href="#bn"/><use transform="matrix(0.06172839506172778,0,0,0.06172839506172778,37.03703703703667,0)" xlink:href="#bs"/></g><g id="C"><use transform="matrix(0.05,0,0,0.05,0,0)" xlink:href="#am"/><use transform="matrix(0.05,0,0,0.05,12,0)" xlink:href="#as"/><use transform="matrix(0.05,0,0,0.05,17,0)" xlink:href="#at"/><use transform="matrix(0.05,0,0,0.05,22,0)" xlink:href="#aA"/><use transform="matrix(0.05,0,0,0.05,32.95,0)" xlink:href="#az"/></g><path fill="#333" d="M121-226c-27-7-43 5-38 36h38v33H83V0H34v-157H6v-33h28c-9-59 32-81 87-68v32" id="bt"/><g id="D"><use transform="matrix(0.05,0,0,0.05,0,0)" xlink:href="#bt"/><use transform="matrix(0.05,0,0,0.05,5.95,0)" xlink:href="#at"/><use transform="matrix(0.05,0,0,0.05,10.95,0)" xlink:href="#as"/><use transform="matrix(0.05,0,0,0.05,15.949999999999998,0)" xlink:href="#aB"/></g><g id="E"><use transform="matrix(0.05,0,0,0.05,0,0)" xlink:href="#aJ"/><use transform="matrix(0.05,0,0,0.05,10.950000000000001,0)" xlink:href="#at"/><use transform="matrix(0.05,0,0,0.05,15.950000000000001,0)" xlink:href="#as"/><use transform="matrix(0.05,0,0,0.05,20.950000000000003,0)" xlink:href="#aB"/></g><path fill="#333" d="M182-182c0 78-84 86-111 141h115V0H12c-6-101 99-100 120-180 1-22-12-31-33-32-23 0-32 14-35 34l-49-3c5-45 32-70 84-70 51 0 83 22 83 69" id="bu"/><use transform="matrix(0.05,0,0,0.05,0,0)" xlink:href="#bu" id="F"/><path fill="#333" d="M23 0v-37h61v-169l-59 37v-38l62-41h46v211h57V0H23" id="bv"/><use transform="matrix(0.05,0,0,0.05,0,0)" xlink:href="#bv" id="G"/><path fill="#333" d="M128-127c34 4 56 21 59 58 7 91-148 94-172 28-4-9-6-17-7-26l51-5c1 24 16 35 40 36 23 0 39-12 38-36-1-31-31-36-65-34v-40c32 2 59-3 59-33 0-20-13-33-34-33s-33 13-35 32l-50-3c6-44 37-68 86-68 50 0 83 20 83 66 0 35-22 52-53 58" id="bw"/><use transform="matrix(0.05,0,0,0.05,0,0)" xlink:href="#bw" id="H"/><g id="I"><use transform="matrix(0.05,0,0,0.05,0,0)" xlink:href="#aM"/><use transform="matrix(0.05,0,0,0.05,12,0)" xlink:href="#az"/></g><g id="J"><use transform="matrix(0.05,0,0,0.05,0,0)" xlink:href="#aE"/><use transform="matrix(0.05,0,0,0.05,7,0)" xlink:href="#az"/><use transform="matrix(0.05,0,0,0.05,17,0)" xlink:href="#aA"/><use transform="matrix(0.05,0,0,0.05,27.950000000000003,0)" xlink:href="#at"/><use transform="matrix(0.05,0,0,0.05,32.95,0)" xlink:href="#aH"/><use transform="matrix(0.05,0,0,0.05,42.95,0)" xlink:href="#aG"/><use transform="matrix(0.05,0,0,0.05,48.900000000000006,0)" xlink:href="#aE"/><use transform="matrix(0.05,0,0,0.05,55.900000000000006,0)" xlink:href="#aB"/></g><g id="K"><use transform="matrix(0.05,0,0,0.05,0,0)" xlink:href="#as"/><use transform="matrix(0.05,0,0,0.05,5,0)" xlink:href="#as"/><use transform="matrix(0.05,0,0,0.05,10,0)" xlink:href="#az"/><use transform="matrix(0.05,0,0,0.05,20,0)" xlink:href="#aA"/><use transform="matrix(0.05,0,0,0.05,30.950000000000003,0)" xlink:href="#aB"/><use transform="matrix(0.05,0,0,0.05,40.95,0)" xlink:href="#av"/><use transform="matrix(0.05,0,0,0.05,51.900000000000006,0)" xlink:href="#aB"/></g><g id="L"><use transform="matrix(0.05,0,0,0.05,0,0)" xlink:href="#av"/><use transform="matrix(0.05,0,0,0.05,10.950000000000001,0)" xlink:href="#az"/><use transform="matrix(0.05,0,0,0.05,20.950000000000003,0)" xlink:href="#as"/></g><g id="M"><use transform="matrix(0.05,0,0,0.05,0,0)" xlink:href="#at"/><use transform="matrix(0.05,0,0,0.05,5,0)" xlink:href="#au"/><use transform="matrix(0.05,0,0,0.05,15.950000000000001,0)" xlink:href="#av"/><use transform="matrix(0.05,0,0,0.05,26.900000000000002,0)" xlink:href="#at"/><use transform="matrix(0.05,0,0,0.05,31.900000000000002,0)" xlink:href="#aw"/><use transform="matrix(0.05,0,0,0.05,41.900000000000006,0)" xlink:href="#at"/><use transform="matrix(0.05,0,0,0.05,46.900000000000006,0)" xlink:href="#av"/><use transform="matrix(0.05,0,0,0.05,57.85,0)" xlink:href="#ax"/><use transform="matrix(0.05,0,0,0.05,68.80000000000001,0)" xlink:href="#ay"/></g><g id="N"><use transform="matrix(0.05,0,0,0.05,0,0)" xlink:href="#al"/><use transform="matrix(0.05,0,0,0.05,9.600000000000001,0)" xlink:href="#ay"/><use transform="matrix(0.05,0,0,0.05,20.550000000000004,0)" xlink:href="#av"/><use transform="matrix(0.05,0,0,0.05,31.500000000000007,0)" xlink:href="#ay"/><use transform="matrix(0.05,0,0,0.05,42.45000000000001,0)" xlink:href="#aH"/></g><g id="O"><use transform="matrix(0.05,0,0,0.05,0,0)" xlink:href="#as"/><use transform="matrix(0.05,0,0,0.05,5,0)" xlink:href="#as"/><use transform="matrix(0.05,0,0,0.05,10,0)" xlink:href="#az"/><use transform="matrix(0.05,0,0,0.05,20,0)" xlink:href="#aA"/><use transform="matrix(0.05,0,0,0.05,30.950000000000003,0)" xlink:href="#aB"/><use transform="matrix(0.05,0,0,0.05,40.95,0)" xlink:href="#au"/></g><use transform="matrix(0.05,0,0,0.05,0,0)" xlink:href="#aB" id="P"/><g id="Q"><use transform="matrix(0.05,0,0,0.05,0,0)" xlink:href="#ax"/><use transform="matrix(0.05,0,0,0.05,10.950000000000001,0)" xlink:href="#au"/><use transform="matrix(0.05,0,0,0.05,21.900000000000002,0)" xlink:href="#at"/><use transform="matrix(0.05,0,0,0.05,26.900000000000002,0)" xlink:href="#bt"/><use transform="matrix(0.05,0,0,0.05,32.85,0)" xlink:href="#at"/><use transform="matrix(0.05,0,0,0.05,37.85,0)" xlink:href="#as"/><use transform="matrix(0.05,0,0,0.05,42.85,0)" xlink:href="#aB"/></g><g id="R"><use transform="matrix(0.05,0,0,0.05,0,0)" xlink:href="#am"/><use transform="matrix(0.05,0,0,0.05,12,0)" xlink:href="#as"/><use transform="matrix(0.05,0,0,0.05,17,0)" xlink:href="#at"/><use transform="matrix(0.05,0,0,0.05,22,0)" xlink:href="#aA"/><use transform="matrix(0.05,0,0,0.05,32.95,0)" xlink:href="#az"/></g><g id="S"><use transform="matrix(0.05,0,0,0.05,0,0)" xlink:href="#aL"/><use transform="matrix(0.05,0,0,0.05,10.950000000000001,0)" xlink:href="#as"/><use transform="matrix(0.05,0,0,0.05,15.950000000000001,0)" xlink:href="#aB"/><use transform="matrix(0.05,0,0,0.05,25.950000000000003,0)" xlink:href="#aG"/><use transform="matrix(0.05,0,0,0.05,31.900000000000002,0)" xlink:href="#at"/><use transform="matrix(0.05,0,0,0.05,36.900000000000006,0)" xlink:href="#as"/><use transform="matrix(0.05,0,0,0.05,41.900000000000006,0)" xlink:href="#as"/><use transform="matrix(0.05,0,0,0.05,46.900000000000006,0)" xlink:href="#ay"/></g><path fill="#333" d="M110-194c64 0 96 36 96 99 0 64-35 99-97 99-61 0-95-36-95-99 0-62 34-99 96-99zm-1 164c35 0 45-28 45-65 0-40-10-65-43-65-34 0-45 26-45 65 0 36 10 65 43 65zM81-208v-5l45-51h45v8l-60 48H81" id="bx"/><g id="T"><use transform="matrix(0.05,0,0,0.05,0,0)" xlink:href="#av"/><use transform="matrix(0.05,0,0,0.05,10.950000000000001,0)" xlink:href="#az"/><use transform="matrix(0.05,0,0,0.05,20.950000000000003,0)" xlink:href="#aC"/><use transform="matrix(0.05,0,0,0.05,30.950000000000003,0)" xlink:href="#at"/><use transform="matrix(0.05,0,0,0.05,35.95,0)" xlink:href="#aH"/><use transform="matrix(0.05,0,0,0.05,45.95,0)" xlink:href="#at"/><use transform="matrix(0.05,0,0,0.05,50.95,0)" xlink:href="#bx"/><use transform="matrix(0.05,0,0,0.05,61.900000000000006,0)" xlink:href="#au"/></g><g id="U"><use transform="matrix(0.05,0,0,0.05,0,0)" xlink:href="#ai"/><use transform="matrix(0.05,0,0,0.05,14,0)" xlink:href="#aL"/><use transform="matrix(0.05,0,0,0.05,24.950000000000003,0)" xlink:href="#aC"/><use transform="matrix(0.05,0,0,0.05,34.95,0)" xlink:href="#at"/><use transform="matrix(0.05,0,0,0.05,39.95,0)" xlink:href="#bx"/><use transform="matrix(0.05,0,0,0.05,50.900000000000006,0)" xlink:href="#au"/></g><g id="V"><use transform="matrix(0.05,0,0,0.05,0,0)" xlink:href="#aJ"/><use transform="matrix(0.05,0,0,0.05,10.950000000000001,0)" xlink:href="#at"/><use transform="matrix(0.05,0,0,0.05,15.950000000000001,0)" xlink:href="#au"/></g><g id="W"><use transform="matrix(0.05,0,0,0.05,0,0)" xlink:href="#aE"/><use transform="matrix(0.05,0,0,0.05,7,0)" xlink:href="#az"/><use transform="matrix(0.05,0,0,0.05,17,0)" xlink:href="#aA"/><use transform="matrix(0.05,0,0,0.05,27.950000000000003,0)" xlink:href="#at"/><use transform="matrix(0.05,0,0,0.05,32.95,0)" xlink:href="#aH"/><use transform="matrix(0.05,0,0,0.05,42.95,0)" xlink:href="#aG"/><use transform="matrix(0.05,0,0,0.05,48.900000000000006,0)" xlink:href="#aE"/><use transform="matrix(0.05,0,0,0.05,55.900000000000006,0)" xlink:href="#aB"/></g><path fill="#333" d="M85 4C-2 5 27-109 22-190h50c7 57-23 150 33 157 60-5 35-97 40-157h50l1 190h-47c-2-12 1-28-3-38-12 25-28 42-61 42zm-4-212v-5l45-51h45v8l-60 48H81" id="by"/><g id="X"><use transform="matrix(0.05,0,0,0.05,0,0)" xlink:href="#au"/><use transform="matrix(0.05,0,0,0.05,10.950000000000001,0)" xlink:href="#by"/><use transform="matrix(0.05,0,0,0.05,21.900000000000002,0)" xlink:href="#aD"/><use transform="matrix(0.05,0,0,0.05,37.900000000000006,0)" xlink:href="#az"/><use transform="matrix(0.05,0,0,0.05,47.900000000000006,0)" xlink:href="#aE"/><use transform="matrix(0.05,0,0,0.05,54.900000000000006,0)" xlink:href="#ay"/></g><g id="Y"><use transform="matrix(0.05,0,0,0.05,0,0)" xlink:href="#av"/><use transform="matrix(0.05,0,0,0.05,10.950000000000001,0)" xlink:href="#az"/></g><g id="Z"><use transform="matrix(0.05,0,0,0.05,0,0)" xlink:href="#aL"/><use transform="matrix(0.05,0,0,0.05,10.950000000000001,0)" xlink:href="#aB"/><use transform="matrix(0.05,0,0,0.05,20.950000000000003,0)" xlink:href="#aA"/><use transform="matrix(0.05,0,0,0.05,31.900000000000006,0)" xlink:href="#ay"/><use transform="matrix(0.05,0,0,0.05,42.85000000000001,0)" xlink:href="#aH"/></g><path fill="#333" d="M182-130c37 4 62 22 62 59C244 23 116-4 24 0v-248c84 5 203-23 205 63 0 31-19 50-47 55zM76-148c40-3 101 13 101-30 0-44-60-28-101-31v61zm0 110c48-3 116 14 116-37 0-48-69-32-116-35v72" id="bz"/><g id="aa"><use transform="matrix(0.05,0,0,0.05,0,0)" xlink:href="#bz"/><use transform="matrix(0.05,0,0,0.05,12.950000000000001,0)" xlink:href="#aB"/><use transform="matrix(0.05,0,0,0.05,22.950000000000003,0)" xlink:href="#aH"/><use transform="matrix(0.05,0,0,0.05,32.95,0)" xlink:href="#az"/></g><g id="ab"><use transform="matrix(0.05,0,0,0.05,0,0)" xlink:href="#av"/><use transform="matrix(0.05,0,0,0.05,10.950000000000001,0)" xlink:href="#az"/></g><g id="ac"><use transform="matrix(0.05,0,0,0.05,0,0)" xlink:href="#av"/><use transform="matrix(0.05,0,0,0.05,10.950000000000001,0)" xlink:href="#aB"/><use transform="matrix(0.05,0,0,0.05,20.950000000000003,0)" xlink:href="#aG"/><use transform="matrix(0.05,0,0,0.05,26.900000000000002,0)" xlink:href="#ay"/><use transform="matrix(0.05,0,0,0.05,37.85,0)" xlink:href="#aH"/></g></defs></g></svg>